<mxfile host="www.draw.io" modified="2020-03-29T01:43:54.128Z" agent="Mozilla/5.0 (Windows NT 10.0; Win64; x64) AppleWebKit/537.36 (KHTML, like Gecko) Chrome/80.0.3987.149 Safari/537.36" etag="nQrWFWuZwq3VpzrE1Psh" version="12.9.3" type="github">
  <diagram id="L9HsGhVIq-JMPbp2CLdJ" name="Page-1">
    <mxGraphModel dx="1024" dy="534" grid="1" gridSize="10" guides="1" tooltips="1" connect="1" arrows="1" fold="1" page="1" pageScale="1" pageWidth="1654" pageHeight="1169" math="0" shadow="0">
      <root>
        <mxCell id="0" />
        <mxCell id="1" parent="0" />
        <mxCell id="gMO_VNe8nnsR0fHQVzKR-1" value="AWS Cloud" style="points=[[0,0],[0.25,0],[0.5,0],[0.75,0],[1,0],[1,0.25],[1,0.5],[1,0.75],[1,1],[0.75,1],[0.5,1],[0.25,1],[0,1],[0,0.75],[0,0.5],[0,0.25]];outlineConnect=0;gradientColor=none;html=1;whiteSpace=wrap;fontSize=12;fontStyle=0;shape=mxgraph.aws4.group;grIcon=mxgraph.aws4.group_aws_cloud_alt;strokeColor=#232F3E;fillColor=none;verticalAlign=top;align=left;spacingLeft=30;fontColor=#232F3E;dashed=0;" vertex="1" parent="1">
          <mxGeometry x="310" y="150" width="410" height="320" as="geometry" />
        </mxCell>
        <mxCell id="gMO_VNe8nnsR0fHQVzKR-2" value="" style="outlineConnect=0;fontColor=#232F3E;gradientColor=#F34482;gradientDirection=north;fillColor=#BC1356;strokeColor=#ffffff;dashed=0;verticalLabelPosition=bottom;verticalAlign=top;align=center;html=1;fontSize=12;fontStyle=0;aspect=fixed;shape=mxgraph.aws4.resourceIcon;resIcon=mxgraph.aws4.cloudformation;" vertex="1" parent="1">
          <mxGeometry x="390" y="180" width="78" height="78" as="geometry" />
        </mxCell>
        <mxCell id="gMO_VNe8nnsR0fHQVzKR-3" value="" style="outlineConnect=0;fontColor=#232F3E;gradientColor=#F34482;gradientDirection=north;fillColor=#BC1356;strokeColor=#ffffff;dashed=0;verticalLabelPosition=bottom;verticalAlign=top;align=center;html=1;fontSize=12;fontStyle=0;aspect=fixed;shape=mxgraph.aws4.resourceIcon;resIcon=mxgraph.aws4.cloudformation;" vertex="1" parent="1">
          <mxGeometry x="570" y="180" width="78" height="78" as="geometry" />
        </mxCell>
        <mxCell id="gMO_VNe8nnsR0fHQVzKR-4" value="" style="verticalLabelPosition=bottom;html=1;verticalAlign=top;align=center;strokeColor=none;fillColor=#00BEF2;shape=mxgraph.azure.code_file;pointerEvents=1;" vertex="1" parent="1">
          <mxGeometry x="585.25" y="40" width="47.5" height="50" as="geometry" />
        </mxCell>
        <mxCell id="gMO_VNe8nnsR0fHQVzKR-9" value="デプロイ" style="edgeStyle=orthogonalEdgeStyle;rounded=0;orthogonalLoop=1;jettySize=auto;html=1;" edge="1" parent="1" source="gMO_VNe8nnsR0fHQVzKR-5" target="gMO_VNe8nnsR0fHQVzKR-2">
          <mxGeometry relative="1" as="geometry" />
        </mxCell>
        <mxCell id="gMO_VNe8nnsR0fHQVzKR-5" value="" style="verticalLabelPosition=bottom;html=1;verticalAlign=top;align=center;strokeColor=none;fillColor=#00BEF2;shape=mxgraph.azure.code_file;pointerEvents=1;" vertex="1" parent="1">
          <mxGeometry x="405.25" y="40" width="47.5" height="50" as="geometry" />
        </mxCell>
        <mxCell id="gMO_VNe8nnsR0fHQVzKR-7" value="" style="outlineConnect=0;fontColor=#232F3E;gradientColor=#F34482;gradientDirection=north;fillColor=#BC1356;strokeColor=#ffffff;dashed=0;verticalLabelPosition=bottom;verticalAlign=top;align=center;html=1;fontSize=12;fontStyle=0;aspect=fixed;shape=mxgraph.aws4.resourceIcon;resIcon=mxgraph.aws4.sns;" vertex="1" parent="1">
          <mxGeometry x="390" y="350" width="78" height="78" as="geometry" />
        </mxCell>
        <mxCell id="gMO_VNe8nnsR0fHQVzKR-8" value="" style="outlineConnect=0;fontColor=#232F3E;gradientColor=#F78E04;gradientDirection=north;fillColor=#D05C17;strokeColor=#ffffff;dashed=0;verticalLabelPosition=bottom;verticalAlign=top;align=center;html=1;fontSize=12;fontStyle=0;aspect=fixed;shape=mxgraph.aws4.resourceIcon;resIcon=mxgraph.aws4.lambda;" vertex="1" parent="1">
          <mxGeometry x="570" y="350" width="78" height="78" as="geometry" />
        </mxCell>
        <mxCell id="gMO_VNe8nnsR0fHQVzKR-10" value="デプロイ" style="edgeStyle=orthogonalEdgeStyle;rounded=0;orthogonalLoop=1;jettySize=auto;html=1;exitX=0.5;exitY=1;exitDx=0;exitDy=0;exitPerimeter=0;" edge="1" parent="1" source="gMO_VNe8nnsR0fHQVzKR-4" target="gMO_VNe8nnsR0fHQVzKR-3">
          <mxGeometry relative="1" as="geometry">
            <mxPoint x="609" y="80" as="sourcePoint" />
            <mxPoint x="439" y="190" as="targetPoint" />
          </mxGeometry>
        </mxCell>
        <mxCell id="gMO_VNe8nnsR0fHQVzKR-11" value="初回は作成、二回目以降は更新" style="edgeStyle=orthogonalEdgeStyle;rounded=0;orthogonalLoop=1;jettySize=auto;html=1;" edge="1" parent="1" source="gMO_VNe8nnsR0fHQVzKR-3" target="gMO_VNe8nnsR0fHQVzKR-8">
          <mxGeometry relative="1" as="geometry">
            <mxPoint x="619.19" y="89.79999999999995" as="sourcePoint" />
            <mxPoint x="619" y="190" as="targetPoint" />
          </mxGeometry>
        </mxCell>
        <mxCell id="gMO_VNe8nnsR0fHQVzKR-12" value="初回は作成、二回目以降はエラー" style="edgeStyle=orthogonalEdgeStyle;rounded=0;orthogonalLoop=1;jettySize=auto;html=1;" edge="1" parent="1" source="gMO_VNe8nnsR0fHQVzKR-2" target="gMO_VNe8nnsR0fHQVzKR-7">
          <mxGeometry relative="1" as="geometry">
            <mxPoint x="619" y="268" as="sourcePoint" />
            <mxPoint x="619" y="360" as="targetPoint" />
          </mxGeometry>
        </mxCell>
      </root>
    </mxGraphModel>
  </diagram>
</mxfile>
